<svg width="1200" height="900" viewBox="0 0 1200 900" fill="none" xmlns="http://www.w3.org/2000/svg">
  <g opacity="0.08" stroke="#1d4ed8" stroke-width="8" stroke-linecap="round" stroke-linejoin="round">
    <path d="M600 140C600 140 640 220 640 300C640 390 600 460 600 460C600 460 560 390 560 300C560 220 600 140 600 140Z" />
    <path d="M600 460L600 760" />
    <path d="M470 520C520 500 560 490 600 490C640 490 680 500 730 520" />
    <path d="M430 620C500 590 550 575 600 575C650 575 700 590 770 620" />
    <path d="M390 720C480 690 540 675 600 675C660 675 720 690 810 720" />
    <path d="M520 240C490 260 470 300 470 340C470 390 510 430 560 440" />
    <path d="M680 240C710 260 730 300 730 340C730 390 690 430 640 440" />
    <path d="M600 250L600 330" />
    <path d="M560 290L640 290" />
  </g>
</svg>
